<?xml version="1.0" standalone="no"?>
<!DOCTYPE svg PUBLIC "-//W3C//DTD SVG 20010904//EN"
 "http://www.w3.org/TR/2001/REC-SVG-20010904/DTD/svg10.dtd">
<svg version="1.0" xmlns="http://www.w3.org/2000/svg"
 width="1080.000000pt" height="1080.000000pt" viewBox="0 0 1080.000000 1080.000000"
 preserveAspectRatio="xMidYMid meet">
<metadata>
Created by potrace 1.11, written by Peter Selinger 2001-2013
</metadata>
<g transform="translate(0.000000,1080.000000) scale(0.100000,-0.100000)"
fill="#000000" stroke="none">
<path d="M75 7019 l-35 -31 0 -103 c0 -92 19 -287 50 -500 5 -38 19 -137 30
-220 11 -82 29 -217 40 -300 12 -82 24 -200 27 -260 5 -96 4 -113 -11 -128
-23 -23 -56 -6 -56 28 0 22 -4 25 -40 25 -40 0 -40 0 -40 -39 0 -74 92 -121
167 -85 21 11 43 30 50 44 24 47 14 205 -36 575 -106 795 -118 919 -85 946 21
18 48 0 52 -35 3 -23 8 -26 43 -26 38 0 39 1 39 36 0 28 -8 44 -34 70 -29 29
-41 34 -80 34 -36 0 -52 -6 -81 -31z"/>
<path d="M1080 7025 c-194 -46 -340 -121 -471 -243 -186 -171 -279 -415 -249
-645 14 -105 33 -164 82 -257 135 -254 396 -427 715 -475 134 -20 204 -19 338
4 328 55 593 242 715 504 49 105 70 196 70 307 0 388 -298 713 -744 809 -133
29 -324 27 -456 -4z m480 -74 c170 -44 379 -168 471 -282 54 -66 115 -176 139
-249 44 -131 37 -317 -17 -444 -129 -310 -459 -509 -839 -508 -172 1 -296 29
-439 100 -215 106 -366 282 -420 487 -20 78 -20 252 0 330 44 169 159 325 317
431 118 79 269 137 403 155 103 13 291 3 385 -20z"/>
<path d="M2412 6223 l3 -828 958 -3 957 -2 0 35 0 35 -922 2 -923 3 -3 793 -2
792 -35 0 -35 0 2 -827z"/>
<path d="M4410 6251 l0 -799 30 -26 c44 -36 89 -42 137 -18 21 11 44 32 51 47
9 19 12 223 12 810 l0 785 -40 0 -40 0 0 -783 c0 -813 0 -807 -40 -807 -39 0
-40 26 -40 820 l0 770 -35 0 -35 0 0 -799z"/>
<path d="M4720 7015 l0 -35 460 0 460 0 2 -792 3 -793 35 0 35 0 3 793 2 792
465 0 465 0 0 35 0 35 -965 0 -965 0 0 -35z"/>
<path d="M6742 6223 l3 -828 33 -3 32 -3 0 830 0 831 -35 0 -35 0 2 -827z"/>
<path d="M7700 7026 c-173 -41 -305 -103 -428 -202 -221 -180 -327 -431 -294
-698 20 -156 86 -294 204 -421 147 -158 348 -261 588 -300 120 -19 203 -19
332 0 231 35 384 104 526 239 99 94 182 221 230 351 17 47 50 184 57 245 10
73 58 219 96 290 81 152 218 284 374 360 136 66 225 84 405 84 131 0 168 -4
240 -24 305 -84 518 -273 611 -545 9 -27 14 -88 14 -185 0 -129 -3 -152 -24
-210 -45 -121 -125 -241 -216 -321 -53 -48 -153 -115 -199 -134 -32 -13 -36
-19 -36 -50 0 -21 5 -35 13 -35 6 0 44 16 82 36 176 90 305 216 384 377 29 58
58 134 68 177 113 516 -341 990 -947 990 -390 0 -694 -177 -855 -498 -51 -102
-71 -165 -105 -327 -36 -172 -67 -257 -128 -359 -123 -205 -320 -341 -557
-383 -107 -18 -300 -18 -403 2 -105 20 -252 80 -340 139 -129 85 -256 243
-305 376 -46 125 -46 307 -1 439 99 288 416 517 744 538 98 6 110 12 110 51 0
21 -4 22 -72 21 -40 0 -116 -11 -168 -23z"/>
</g>
</svg>
